<?xml version="1.0" encoding="UTF-8" standalone="no"?>
<!-- Created with Inkscape (http://www.inkscape.org/) -->

<svg
   width="169.33333mm"
   height="152.89771mm"
   viewBox="0 0 169.33333 152.89771"
   version="1.1"
   id="svg1"
   inkscape:version="1.3 (1:1.3+202307231459+0e150ed6c4)"
   sodipodi:docname="presentations-00.svg"
   xmlns:inkscape="http://www.inkscape.org/namespaces/inkscape"
   xmlns:sodipodi="http://sodipodi.sourceforge.net/DTD/sodipodi-0.dtd"
   xmlns="http://www.w3.org/2000/svg"
   xmlns:svg="http://www.w3.org/2000/svg">
  <sodipodi:namedview
     id="namedview1"
     pagecolor="#ffffff"
     bordercolor="#666666"
     borderopacity="1.0"
     inkscape:showpageshadow="2"
     inkscape:pageopacity="0.0"
     inkscape:pagecheckerboard="0"
     inkscape:deskcolor="#d1d1d1"
     inkscape:document-units="mm"
     inkscape:zoom="0.60095148"
     inkscape:cx="312.83723"
     inkscape:cy="226.30779"
     inkscape:window-width="1920"
     inkscape:window-height="1136"
     inkscape:window-x="0"
     inkscape:window-y="0"
     inkscape:window-maximized="1"
     inkscape:current-layer="layer1" />
  <defs
     id="defs1" />
  <g
     inkscape:label="Layer 1"
     inkscape:groupmode="layer"
     id="layer1"
     transform="translate(-21.91867,-88.786042)">
    <g
       id="g10">
      <circle
         cx="106.58529"
         cy="124.17879"
         r="7.074728"
         fill="#61dafb"
         id="circle1"
         style="stroke-width:3.45108" />
      <g
         stroke="#61dafb"
         stroke-width="1"
         fill="none"
         id="g3"
         transform="matrix(3.4510868,0,0,3.4510868,106.5853,124.17881)">
        <ellipse
           rx="11"
           ry="4.1999998"
           id="ellipse1"
           cx="0"
           cy="0" />
        <ellipse
           rx="11"
           ry="4.1999998"
           transform="rotate(60)"
           id="ellipse2"
           cx="0"
           cy="0" />
        <ellipse
           rx="11"
           ry="4.1999998"
           transform="rotate(120)"
           id="ellipse3"
           cx="0"
           cy="0" />
      </g>
    </g>
    <g
       transform="matrix(0.40705128,0,0,0.40705128,110.65585,159.87577)"
       fill-rule="evenodd"
       id="g17">
      <path
         d="m 99,52 h 84 V 86 H 99 Z"
         fill="#ffffff"
         id="path1" />
      <g
         fill="#3ecc5f"
         id="g4">
        <path
           d="M 23,163 C 15.602,163 9.157,158.973 5.697,153 3.992,155.944 3,159.353 3,163 c 0,11.046 8.954,20 20,20 h 20 v -20 z"
           id="path2" />
        <path
           d="M 112.98,57.376 183,53 V 43 C 183,31.954 174.045,23 163,23 H 73 l -2.5,-4.33 a 2.89,2.89 0 0 0 -5,0 L 63,23 60.5,18.67 a 2.89,2.89 0 0 0 -5,0 L 53,23 50.5,18.67 a 2.89,2.89 0 0 0 -5,0 L 43,23 c -0.022,0 -0.043,0.003 -0.065,0.003 l -4.142,-4.14 a 2.89,2.89 0 0 0 -4.829,1.294 l -1.368,5.104 -5.193,-1.392 a 2.89,2.89 0 0 0 -3.535,3.536 l 1.4,5.193 -5.103,1.367 a 2.89,2.89 0 0 0 -1.295,4.83 L 23,42.937 c 0,0.02 -0.002,0.042 -0.002,0.064 l -4.33,2.5 a 2.89,2.89 0 0 0 0,5 L 23,53 18.67,55.5 a 2.89,2.89 0 0 0 0,5 L 23,63 18.67,65.5 a 2.89,2.89 0 0 0 0,5 L 23,73 18.67,75.5 a 2.89,2.89 0 0 0 0,5 L 23,83 18.67,85.5 a 2.89,2.89 0 0 0 0,5 L 23,93 18.67,95.5 a 2.89,2.89 0 0 0 0,5 l 4.33,2.5 -4.33,2.5 a 2.89,2.89 0 0 0 0,5 l 4.33,2.5 -4.33,2.5 a 2.89,2.89 0 0 0 0,5 l 4.33,2.5 -4.33,2.5 a 2.89,2.89 0 0 0 0,5 l 4.33,2.5 -4.33,2.5 a 2.89,2.89 0 0 0 0,5 l 4.33,2.5 -4.33,2.5 a 2.89,2.89 0 0 0 0,5 l 4.33,2.5 -4.33,2.5 a 2.89,2.89 0 0 0 0,5 L 23,163 c 0,11.046 8.954,20 20,20 h 120 c 11.045,0 20,-8.954 20,-20 V 83 L 112.98,78.624 C 107.37,78.273 103,73.62 103,68 c 0,-5.62 4.37,-10.273 9.98,-10.624"
           id="path3" />
        <path
           d="m 143,183 h 30 v -40 h -30 z"
           id="path4" />
      </g>
      <path
         d="m 193,158 c -0.22,0 -0.428,0.037 -0.64,0.064 l -0.116,-0.45 c 1.806,-0.754 3.075,-2.534 3.075,-4.613 a 5,5 0 0 0 -5,-5 4.96,4.96 0 0 0 -3.016,1.036 l -0.335,-0.336 c 0.627,-0.836 1,-1.862 1,-2.987 a 5,5 0 0 0 -9.599,-1.959 l -0.445,-0.115 c 0.027,-0.2 0.064,-0.42 0.064,-0.64 a 5,5 0 1 0 -10,0 c 0,0.22 0.037,0.428 0.064,0.64 l -0.445,0.115 a 5,5 0 0 0 -9.599,1.959 c 0,1.125 0.384,2.15 1,2.987 A 19.93,19.93 0 0 0 153,163 c 0,11.046 8.954,20 20,20 9.34,0 17.16,-6.4 19.36,-15.064 0.2,0.027 0.42,0.064 0.64,0.064 a 5,5 0 1 0 0,-10"
         fill="#44d860"
         id="path5" />
      <path
         d="m 153,123 h 30 v -20 h -30 z"
         fill="#3ecc5f"
         id="path6" />
      <path
         id="use6"
         d="m 193,115.5 a 2.5,2.5 0 1 0 0,-5 c -0.1,0 -0.214,0.02 -0.32,0.032 l -0.058,-0.225 a 2.5,2.5 0 0 0 -0.963,-4.807 2.47,2.47 0 0 0 -1.508,0.518 l -0.168,-0.168 a 2.47,2.47 0 0 0 0.506,-1.494 2.5,2.5 0 0 0 -4.8,-0.979 c -0.857,-0.24 -1.756,-0.377 -2.7,-0.377 -5.522,0 -10,4.478 -10,10 0,5.522 4.478,10 10,10 0.934,0 1.833,-0.138 2.7,-0.377 a 2.5,2.5 0 0 0 4.8,-0.979 c 0,-0.563 -0.192,-1.077 -0.506,-1.494 0.057,-0.055 0.113,-0.1 0.168,-0.168 a 2.48,2.48 0 0 0 1.508,0.518 2.5,2.5 0 0 0 0.963,-4.807 l 0.058,-0.225 c 0.105,0.013 0.2,0.032 0.32,0.032"
         style="fill:#44d860" />
      <path
         d="M 63,55.5 A 2.5,2.5 0 0 1 60.5,53 7.51,7.51 0 0 0 53,45.5 7.51,7.51 0 0 0 45.5,53 a 2.5,2.5 0 1 1 -5,0 c 0,-6.893 5.607,-12.5 12.5,-12.5 6.893,0 12.5,5.607 12.5,12.5 A 2.5,2.5 0 0 1 63,55.5"
         id="path7" />
      <path
         d="m 103,183 h 60 c 11.046,0 20,-8.954 20,-20 V 93 h -60 c -11.046,0 -20,8.954 -20,20 z"
         fill="#ffff50"
         id="path8" />
      <path
         id="use8"
         d="m 168.02,124 h -50.04 a 1,1 0 1 1 0,-2 h 50.04 a 1,1 0 1 1 0,2" />
      <path
         id="use9"
         d="m 168.02,144 h -50.04 a 1,1 0 1 1 0,-2 h 50.04 a 1,1 0 1 1 0,2" />
      <path
         id="use10"
         d="m 168.02,164 h -50.04 a 1,1 0 1 1 0,-2 h 50.04 a 1,1 0 1 1 0,2" />
      <path
         id="use11"
         d="m 168.02,114.186 h -50.04 a 1,1 0 1 1 0,-2 h 50.04 a 1,1 0 1 1 0,2" />
      <path
         id="use12"
         d="m 168.02,134 h -50.04 a 1,1 0 1 1 0,-2 h 50.04 a 1,1 0 1 1 0,2" />
      <path
         id="use13"
         d="m 168.02,154 h -50.04 a 1,1 0 1 1 0,-2 h 50.04 a 1,1 0 1 1 0,2" />
      <path
         d="m 183,61.6 c -0.012,0 -0.022,-0.006 -0.034,-0.005 -3.1,0.105 -4.552,3.196 -5.842,5.923 -1.346,2.85 -2.387,4.703 -4.093,4.647 -1.9,-0.068 -2.97,-2.202 -4.113,-4.46 -1.314,-2.593 -2.814,-5.535 -5.963,-5.425 -3.046,0.104 -4.513,2.794 -5.807,5.167 -1.377,2.528 -2.314,4.065 -4.12,3.994 -1.927,-0.07 -2.95,-1.805 -4.136,-3.813 -1.32,-2.236 -2.848,-4.75 -5.936,-4.664 -2.994,0.103 -4.465,2.385 -5.763,4.4 -1.373,2.13 -2.335,3.428 -4.165,3.35 -1.973,-0.07 -2.992,-1.5 -4.17,-3.177 -1.324,-1.873 -2.816,-3.993 -5.895,-3.9 -2.928,0.1 -4.4,1.97 -5.696,3.618 -1.232,1.564 -2.194,2.802 -4.23,2.724 a 1.0006478,1.0006478 0 1 0 -0.072,2 c 3.017,0.1 4.545,-1.8 5.872,-3.487 1.177,-1.496 2.193,-2.787 4.193,-2.855 1.926,-0.082 2.83,1.115 4.195,3.045 1.297,1.834 2.77,3.914 5.73,4.02 3.103,0.104 4.596,-2.215 5.918,-4.267 1.182,-1.834 2.202,-3.417 4.15,-3.484 1.793,-0.067 2.77,1.35 4.145,3.68 1.297,2.197 2.766,4.686 5.787,4.796 3.125,0.108 4.634,-2.62 5.95,-5.035 1.14,-2.088 2.214,-4.06 4.12,-4.126 1.793,-0.042 2.728,1.595 4.1,4.33 1.292,2.553 2.757,5.445 5.825,5.556 l 0.17,0.003 c 3.064,0 4.518,-3.075 5.805,-5.794 1.14,-2.4 2.217,-4.68 4.067,-4.773 v -2 z"
         id="path13" />
      <path
         d="m 83,183 h 40 V 143 H 83 Z"
         fill="#3ecc5f"
         id="path14" />
      <path
         d="m 143,158 c -0.22,0 -0.428,0.037 -0.64,0.064 l -0.116,-0.45 c 1.806,-0.754 3.075,-2.534 3.075,-4.613 a 5,5 0 0 0 -5,-5 4.96,4.96 0 0 0 -3.016,1.036 l -0.335,-0.336 c 0.627,-0.836 1,-1.862 1,-2.987 a 5,5 0 0 0 -9.599,-1.959 l -0.445,-0.115 c 0.027,-0.2 0.064,-0.42 0.064,-0.64 a 5,5 0 1 0 -10,0 c 0,0.22 0.037,0.428 0.064,0.64 l -0.445,0.115 a 5,5 0 0 0 -9.599,1.959 c 0,1.125 0.384,2.15 1,2.987 A 19.93,19.93 0 0 0 103,163 c 0,11.046 8.954,20 20,20 9.34,0 17.16,-6.4 19.36,-15.064 0.2,0.027 0.42,0.064 0.64,0.064 a 5,5 0 1 0 0,-10"
         fill="#44d860"
         id="path15" />
      <path
         d="m 83,123 h 40 V 103 H 83 Z"
         fill="#3ecc5f"
         id="path16" />
      <path
         id="use16"
         d="m 133,115.5 a 2.5,2.5 0 1 0 0,-5 c -0.1,0 -0.214,0.02 -0.32,0.032 l -0.058,-0.225 a 2.5,2.5 0 0 0 -0.963,-4.807 2.47,2.47 0 0 0 -1.508,0.518 l -0.168,-0.168 a 2.47,2.47 0 0 0 0.506,-1.494 2.5,2.5 0 0 0 -4.8,-0.979 c -0.857,-0.24 -1.756,-0.377 -2.7,-0.377 -5.522,0 -10,4.478 -10,10 0,5.522 4.478,10 10,10 0.934,0 1.833,-0.138 2.7,-0.377 a 2.5,2.5 0 0 0 4.8,-0.979 c 0,-0.563 -0.192,-1.077 -0.506,-1.494 0.057,-0.055 0.113,-0.1 0.168,-0.168 a 2.48,2.48 0 0 0 1.508,0.518 2.5,2.5 0 0 0 0.963,-4.807 l 0.058,-0.225 c 0.105,0.013 0.2,0.032 0.32,0.032"
         style="fill:#44d860" />
      <path
         d="m 143,41.75 a 2.92,2.92 0 0 1 -0.5,-0.05 2.52,2.52 0 0 1 -0.47,-0.14 c -0.15,-0.06 -0.3,-0.14 -0.43,-0.23 l -0.38,-0.3 c -0.1,-0.12 -0.22,-0.24 -0.3,-0.38 a 2.63,2.63 0 0 1 -0.231,-0.43 2.62,2.62 0 0 1 -0.139,-0.47 c -0.03,-0.16 -0.05,-0.33 -0.05,-0.5 0,-0.17 0.02,-0.33 0.05,-0.5 0.03,-0.17 0.08,-0.3 0.14,-0.47 a 2.63,2.63 0 0 1 0.231,-0.43 l 0.3,-0.38 c 0.12,-0.1 0.25,-0.22 0.38,-0.3 a 1.99,1.99 0 0 1 0.43,-0.23 2.52,2.52 0 0 1 0.47,-0.14 c 0.32,-0.07 0.65,-0.07 0.98,0 0.16,0.03 0.32,0.08 0.47,0.14 0.15,0.06 0.3,0.14 0.43,0.23 l 0.38,0.3 a 3.68,3.68 0 0 1 0.31,0.38 2.55,2.55 0 0 1 0.23,0.43 c 0.06,0.16 0.1,0.3 0.14,0.47 a 2.81,2.81 0 0 1 0.05,0.49 2.55,2.55 0 0 1 -0.73,1.77 c -0.12,0.1 -0.25,0.22 -0.38,0.3 a 1.99,1.99 0 0 1 -0.43,0.23 c -0.15,0.06 -0.3,0.1 -0.47,0.14 a 2.07,2.07 0 0 1 -0.5,0.05 M 163,40.5 a 2.55,2.55 0 0 1 -1.77,-0.73 3.68,3.68 0 0 1 -0.31,-0.38 2.63,2.63 0 0 1 -0.231,-0.43 2.62,2.62 0 0 1 -0.139,-0.47 c -0.03,-0.16 -0.05,-0.33 -0.05,-0.5 a 2.55,2.55 0 0 1 0.73,-1.77 c 0.12,-0.1 0.25,-0.22 0.38,-0.3 a 1.99,1.99 0 0 1 0.43,-0.23 2.52,2.52 0 0 1 0.47,-0.14 c 0.32,-0.07 0.66,-0.07 0.98,0 0.16,0.03 0.32,0.08 0.47,0.14 0.15,0.06 0.3,0.14 0.43,0.23 l 0.38,0.3 a 2.53,2.53 0 0 1 0.73,1.77 2.81,2.81 0 0 1 -0.05,0.49 c -0.03,0.16 -0.08,0.32 -0.14,0.47 a 3.55,3.55 0 0 1 -0.23,0.43 3.68,3.68 0 0 1 -0.31,0.38 c -0.12,0.1 -0.25,0.22 -0.38,0.3 a 1.99,1.99 0 0 1 -0.43,0.23 c -0.15,0.06 -0.3,0.1 -0.47,0.14 a 2.07,2.07 0 0 1 -0.5,0.05"
         id="path17" />
    </g>
    <path
       d="m 61.60599,227.99846 c -3.66433,0 -6.83932,-0.79378 -9.52484,-2.38133 -2.67585,-1.5814 -4.81524,-3.82156 -6.17468,-6.46567 -1.44541,-2.75125 -2.50345,-5.66067 -3.14857,-8.65805 -0.68447,-3.25039 -1.0179,-6.55507 -0.9955,-9.86591 0,-2.6213 0.17201,-5.12728 0.51927,-7.52374 0.34393,-2.39341 0.98225,-4.82639 1.91161,-7.29582 0.92933,-2.46946 2.12658,-4.61045 3.58509,-6.42603 1.51846,-1.86004 3.48176,-3.37404 5.73817,-4.42491 2.368,-1.13438 5.06022,-1.70005 8.08945,-1.70005 3.66447,0 6.83957,0.79377 9.5253,2.38126 2.6756,1.58121 4.81514,3.82137 6.17466,6.46555 1.43516,2.72186 2.48375,5.60797 3.14831,8.65827 0.66166,3.04726 0.99575,6.33783 0.99575,9.86547 0,2.62167 -0.17193,5.12751 -0.51941,7.52404 -0.36992,2.4881 -1.02398,4.9335 -1.95132,7.29564 -0.95919,2.46964 -2.14967,4.61063 -3.5852,6.42621 -1.43517,1.81559 -3.33364,3.29057 -5.69831,4.42495 -2.36468,1.13438 -5.06019,1.70012 -8.08978,1.70012 z m 7.00499,-20.12454 c 1.89774,-1.89522 2.95358,-4.51761 2.91702,-7.24642 0,-2.81893 -0.94906,-5.2345 -2.84427,-7.24626 -1.89847,-2.01173 -4.25627,-3.01762 -7.07774,-3.01762 -2.82111,0 -5.17905,1.00589 -7.07745,3.01762 -1.85898,1.91635 -2.88557,4.53194 -2.84427,7.24626 0,2.8193 0.9492,5.23465 2.84427,7.24642 1.8984,2.01176 4.25634,3.01765 7.07745,3.01765 2.82147,0 5.1561,-1.00589 7.00499,-3.01765 z m -7.00499,33.80983 c 21.91768,0 39.68767,-18.38279 39.68767,-41.05625 0,-22.67305 -17.76999,-41.05588 -39.68767,-41.05588 -21.91725,0 -39.68732,18.38283 -39.68732,41.05588 0,22.67346 17.77007,41.05625 39.68732,41.05625 z"
       id="path1-1"
       style="stroke-width:3.61958" />
  </g>
</svg>
